<svg xmlns="http://www.w3.org/2000/svg" id="Layer_1" data-name="Layer 1" viewBox="18.88 201.41 433.16 109.26"><defs><style>.cls-1{fill:#518ac8;}.cls-2,.cls-3{fill:#4171b8;}.cls-3{font-size:86.52px;font-family:HankenGrotesk-BlackItalic, Hanken Grotesk;font-weight:800;font-style:italic;}</style></defs><path class="cls-1" d="M88.32,266.05l-.24.08h0c-.24.09-.48.2-.73.32l-.32.18-.13.08-.21.12a6.92,6.92,0,0,0-.57.42l-.16.13-.08.07c-.21.19-.37.35-.52.5l-.26.29a1,1,0,0,1-.12.15l0,.07a2.35,2.35,0,0,0-.19.25l-.07.1c-.1.13-.18.27-.27.41a9,9,0,0,0-1,2.32h0v0h0v.06l-1.62,19.71-.84.19-.51.09c-.41.09-.83.16-1.26.22a35.6,35.6,0,0,1-5.58.43,37.1,37.1,0,0,1-6.75-.63l-.58-.11-.54-.12-.61-.14h0l-.91-.23-1.59-19.39,0-.1a6.42,6.42,0,0,0-.33-.94l0-.05,0-.08a2.49,2.49,0,0,0-.11-.26l-.12-.25a8.9,8.9,0,0,0-.51-.88l-.12-.19-.13-.17a7.84,7.84,0,0,0-.5-.64c-.12-.13-.24-.26-.36-.37l-.05,0,0-.05-.09-.09-.33-.28-.26-.21-.09-.05-.22-.16-.16-.09,0,0-.1-.06-.09-.05a6.77,6.77,0,0,0-.66-.33l11-4.17a6,6,0,0,0,4.07,1.6,5.92,5.92,0,0,0,4.26-1.79l7.31,2.77Z"></path><path class="cls-2" d="M104.2,210.81,92.39,225h0a36.25,36.25,0,0,1,8,6.63l.16.18a17.21,17.21,0,0,1,4.51,11.59,17.92,17.92,0,0,1-1.37,6.84h0L81.92,242a23.79,23.79,0,0,0-16.84,0L46.3,249.15l-3.53,1.33a17.36,17.36,0,0,1,2.92-17.75,36.12,36.12,0,0,1,9.18-7.84L48.29,217l-5.23-6.31A54.48,54.48,0,0,0,18.88,256c0,1.7.07,3.41.23,5.09a54.31,54.31,0,0,0,3.3,14.28l.36.94.4,1v0l15.2-5.75,2-.76,15-5.7,12-4.58h.05l.06,0-.16-.93-.14-.75a7.45,7.45,0,0,1-.09-1.06v-.06a5.91,5.91,0,0,1,.9-3.08l.08-.08.06-.14a6,6,0,0,1,2.41-2,5.78,5.78,0,0,1,2.53-.57,5.95,5.95,0,0,1,4.43,2,6.85,6.85,0,0,1,.66.89,6,6,0,0,1,.87,3v.08a5,5,0,0,1-.06.86l-.11.78-.12.87h0l6.59,2.5h0l1.59.6,4.85,1.84,2.28.87h0l12.44,4.71,17.19,6.52.41-1,.36-.94a54.69,54.69,0,0,0,3.3-14.29c.15-1.66.23-3.38.23-5.08A54.28,54.28,0,0,0,104.2,210.81ZM26.38,257.37a1.53,1.53,0,0,1-.26-.08l.15-.31a1.88,1.88,0,0,1,.18.24S26.4,257.37,26.38,257.37Z"></path><path class="cls-1" d="M102.45,209.67,90.58,224l-.52-.26-.93-.44a36.33,36.33,0,0,0-31-.12l-.91.42-.54.26-6.81-8.19h0l-5.07-6.11.26-.17,1-.6.57-.31.33-.19a54.67,54.67,0,0,1,53.37.15l.33.19.67.38.88.54Z"></path><path class="cls-1" d="M123,279.18a54.65,54.65,0,0,1-99,0l17.09-6.46.16-.07,0,.1,0,.08c.1.21.22.41.33.61l.1.19q.26.47.54.93l0,.06.53.86a.47.47,0,0,1,.06.09l.15.23.4.6.62.89c.22.3.44.59.67.88a1.32,1.32,0,0,0,.12.16s.34.42.47.6l0,0,.06.07c.22.28.46.55.69.83l.19.2c.58.67,1.2,1.32,1.85,1.95l.21.2c.26.24.52.49.79.72s.56.51.84.75l.83.68.36.28.07.06.38.29.05,0c.27.2.56.42.86.62l.1.07.33.23.07.05.36.24.07,0a35.17,35.17,0,0,0,4.26,2.43,5,5,0,0,0,.49.22c.5.24,1,.46,1.52.67l.38.16.36.13.09,0,.41.16,1.12.39.16.05.38.12.5.16.37.1.4.11,0,0h0l.91.23h0l.61.14.54.12.58.11a37.1,37.1,0,0,0,6.75.63,35.6,35.6,0,0,0,5.58-.43c.43-.06.85-.13,1.26-.22l.51-.09.84-.19.29-.06.19-.06.31-.07.13,0,.45-.12.56-.15.57-.18c.14,0,.27-.09.41-.12l.7-.24.85-.3.2-.08c.48-.18,1-.39,1.49-.6l.09,0,.77-.35.7-.32.24-.13.57-.29,1-.51.37-.22,0,0,.36-.21.48-.29a4.92,4.92,0,0,0,.45-.28l.08-.05.42-.27c.34-.22.64-.42.94-.64l.48-.34.46-.34.42-.32.15-.12.29-.23,0,0c.12-.09.25-.19.37-.3l0,0c.24-.19.49-.4.73-.61s.63-.55.95-.86l.56-.54.21-.19c.28-.27.56-.56.83-.85l.33-.36.42-.46.37-.42.37-.44.34-.41,0,0c.09-.1.17-.21.26-.32l.05-.07c.4-.52.78-1,1.12-1.5l.25-.36c.53-.77,1.07-1.61,1.58-2.49l.18-.33,0-.05c.19-.33.36-.66.53-1l0-.07Z"></path><text class="cls-3" transform="translate(139.62 287.3)">Wheeloo</text></svg>