<svg id="Layer_1" data-name="Layer 1" xmlns="http://www.w3.org/2000/svg" viewBox="0 0 512 512"><defs><style>.cls-1{fill:#518ac8;}.cls-2{fill:#4171b8;}</style></defs><path class="cls-1" d="M323.05,301.5a10.74,10.74,0,0,0-1.05.33c-.07,0-.07,0-.1,0a30.18,30.18,0,0,0-3.3,1.45c-.53.26-1,.52-1.48.79l-.6.36c-.29.16-.59.36-.92.56a30,30,0,0,0-2.6,1.88s-.53.43-.69.59-.27.23-.4.33c-1,.86-1.68,1.58-2.34,2.27-.16.17-1.15,1.32-1.15,1.32-.2.23-.4.46-.56.66l-.23.33a13.3,13.3,0,0,0-.86,1.12l-.3.43c-.46.63-.85,1.25-1.25,1.88a41.15,41.15,0,0,0-4.71,10.48l0,0v.1l0,0-.06.27L293.06,416c-1.25.3-2.54.59-3.79.86l-2.31.43c-1.88.39-3.79.69-5.7,1a164.77,164.77,0,0,1-55.83-.93c-.79-.16-1.61-.29-2.63-.49-.73-.17-1.52-.33-2.44-.53s-1.88-.43-2.77-.66l-.23,0c-1.35-.36-2.74-.69-4.09-1.06l-7.22-87.76-.13-.46a29.74,29.74,0,0,0-1.48-4.22l-.1-.23-.16-.4c-.14-.36-.3-.72-.5-1.15l-.56-1.15a42.3,42.3,0,0,0-2.31-4l-.56-.89c-.16-.23-.36-.49-.56-.75-.75-1.06-1.48-1.95-2.27-2.87-.56-.63-1.09-1.19-1.65-1.72l-.2-.16-.19-.23-.43-.4c-.43-.39-1-.82-1.49-1.28s-.79-.63-1.18-.92l-.4-.27c-.33-.23-.66-.43-1-.69-.19-.1-.46-.26-.72-.43l-.1-.06-.46-.3-.4-.2a29,29,0,0,0-3-1.52L236,283.64a27,27,0,0,0,37.67-.86l33.09,12.56Z"/><path class="cls-2" d="M394.93,51.46l-53.46,64.37h.07a.1.1,0,0,0,.06,0,164.48,164.48,0,0,1,36.16,30c.26.27.49.53.72.79,14.11,15.82,20.4,34.34,20.4,52.47a80.76,80.76,0,0,1-6.23,31s0,0-.06,0l-98.48-37.31a107.38,107.38,0,0,0-76.22,0l-85,32.2-16,6c-10-25.34-7.42-55.7,13.21-80.35a163.28,163.28,0,0,1,41.56-35.49L141.85,79.28,118.19,50.74A246.85,246.85,0,0,0,8.74,256c0,7.71.33,15.46,1.06,23a245.46,245.46,0,0,0,14.93,64.62l1.64,4.29,1.82,4.35,0,.07,68.78-26,9-3.43,68.09-25.8,54.54-20.7.23-.07.23-.09L228.4,272l-.59-3.4a28.23,28.23,0,0,1-.43-4.78v-.26a27,27,0,0,1,4.05-13.94l.36-.4.3-.59A27,27,0,0,1,243,239.38a26.29,26.29,0,0,1,11.43-2.57,27.1,27.1,0,0,1,20.08,8.93,30.07,30.07,0,0,1,3,4,26.74,26.74,0,0,1,4,13.71v.36a25.44,25.44,0,0,1-.27,3.89l-.53,3.53-.52,3.92.06,0,.14,0,29.82,11.33h0l7.19,2.71,22,8.33,10.32,3.93h0L406,322.86l77.78,29.5,1.85-4.42,1.64-4.29A246.57,246.57,0,0,0,502.2,279c.69-7.51,1.06-15.29,1.06-23A245.65,245.65,0,0,0,394.93,51.46ZM42.72,262.22a9.46,9.46,0,0,1-1.19-.36c.24-.46.43-.93.66-1.42a5.73,5.73,0,0,1,.83,1.09C43.12,261.66,42.79,262.22,42.72,262.22Z"/><path class="cls-1" d="M387,46.28,333.3,111l-2.36-1.15-4.23-2a164.4,164.4,0,0,0-140.24-.55l-4.13,1.94-2.44,1.14L149.09,73.27h0l-23-27.66c.38-.26.77-.48,1.17-.73l4.43-2.72,2.57-1.43,1.52-.84a247.52,247.52,0,0,1,241.58.67l1.48.85,3,1.73,4,2.46C386.28,45.81,386.65,46.06,387,46.28Z"/><path class="cls-1" d="M480,360.92a247.36,247.36,0,0,1-447.92,0l77.32-29.26.76-.3c.06.17.16.3.23.46l.2.37c.46.92,1,1.84,1.48,2.76l.46.83c.79,1.42,1.58,2.83,2.44,4.22l.16.29c.79,1.29,1.59,2.57,2.41,3.86.1.16.16.3.23.43l.69,1c.6.89,1.19,1.81,1.82,2.73,1,1.39,1.91,2.74,2.83,4s2,2.66,3,4a8.84,8.84,0,0,0,.56.73l2.14,2.7.13.1.27.33c1,1.25,2.07,2.5,3.13,3.76.26.29.52.59.82.89,2.64,3,5.47,6,8.41,8.83l.95.92c1.15,1.09,2.34,2.21,3.56,3.26,1.32,1.22,2.54,2.28,3.79,3.37s2.5,2,3.79,3.09c.53.43,1,.86,1.62,1.29l.32.26c.57.43,1.13.89,1.72,1.32l.23.17c1.22.89,2.54,1.87,3.85,2.8l.47.33,1.48,1,.33.23c.56.39,1.09.72,1.65,1.09l.29.19a164.93,164.93,0,0,0,19.28,11c.83.39,1.52.72,2.21,1,2.31,1.09,4.62,2.08,6.92,3,.63.27,1.16.46,1.72.69,0,0,1.45.56,1.61.6l.4.16c.62.27,1.25.5,1.87.73,1.75.62,3.4,1.22,5.08,1.74l.73.23c.56.2,1.15.37,1.71.56l2.27.7c.56.16,1.09.29,1.65.46a15.56,15.56,0,0,0,1.81.49l.23.1c.07,0,.14,0,.2,0,1.35.37,2.74.7,4.09,1.06l.23,0c.89.23,1.81.43,2.77.66s1.71.36,2.44.53c1,.2,1.84.33,2.63.49a164.77,164.77,0,0,0,55.83.93c1.91-.3,3.82-.6,5.7-1l2.31-.43c1.25-.27,2.54-.56,3.79-.86l1.32-.29.85-.24a13.36,13.36,0,0,0,1.39-.33l.59-.16c.69-.16,1.35-.36,2.05-.53l2.53-.69,2.57-.79c.63-.2,1.22-.4,1.85-.56l3.16-1.06c1.19-.42,2.54-.89,3.86-1.38l.92-.36c2.18-.83,4.45-1.75,6.73-2.7l.42-.17c1.16-.53,2.34-1.05,3.5-1.61l3.13-1.45,1.09-.56c.85-.43,1.74-.86,2.6-1.32,1.48-.79,2.93-1.55,4.35-2.34l1.68-1,.16-.1c.57-.29,1.09-.62,1.65-.95.79-.5,1.49-.89,2.18-1.32s1.38-.83,2-1.25l.36-.27c.66-.39,1.29-.79,1.91-1.22,1.52-1,2.9-1.88,4.25-2.86l2.18-1.55,2.07-1.55c.63-.46,1.26-.92,1.92-1.45l.66-.53c.46-.33.89-.69,1.31-1.05l.23-.17c.56-.43,1.13-.89,1.69-1.35l.13-.13c1.08-.89,2.21-1.85,3.29-2.77,1.45-1.25,2.87-2.5,4.32-3.89.86-.82,1.68-1.61,2.5-2.44l1-.89c1.29-1.22,2.54-2.54,3.76-3.85l1.51-1.62c.63-.66,1.29-1.38,1.92-2.07s1.15-1.32,1.68-1.92,1.12-1.31,1.64-2,1.06-1.22,1.55-1.85l.13-.16c.4-.47.76-1,1.16-1.45l.23-.3c1.84-2.34,3.56-4.61,5.07-6.79.4-.53,1.12-1.61,1.12-1.61,2.44-3.53,4.85-7.32,7.16-11.31.29-.53.56-1,.82-1.48l.13-.23c.86-1.49,1.65-3,2.41-4.45l.16-.3Z"/></svg>